<?xml version="1.0" encoding="utf-8"?>
<!-- Generator: Adobe Illustrator 16.0.0, SVG Export Plug-In . SVG Version: 6.00 Build 0)  -->
<!DOCTYPE svg PUBLIC "-//W3C//DTD SVG 1.1//EN" "http://www.w3.org/Graphics/SVG/1.1/DTD/svg11.dtd">
<svg version="1.1" id="Layer_1" xmlns="http://www.w3.org/2000/svg" xmlns:xlink="http://www.w3.org/1999/xlink" x="0px" y="0px"
	 width="140px" height="55px" viewBox="0 0 140 55" enable-background="new 0 0 140 55" xml:space="preserve">
<g>
	<path fill="#F48120" d="M35.938,36.063c0.647-3.144,1.91-6.202,3.765-9.153c-0.075-0.117-0.137-0.239-0.216-0.351
		c-1.669-2.304-4.154-3.783-7.457-4.444L47.206,6.158c0.373-0.387,0.344-0.582-0.088-0.582H17.313L8.364,16.306h17.854
		L13.411,30.214c-0.243,0.295-0.288,0.523-0.139,0.683c0.155,0.135,0.415,0.15,0.777,0.035c2.231-0.75,4.64-1.127,7.237-1.127
		c5.537,0,7.849,2.219,6.933,6.661c-0.909,4.421-3.95,6.63-9.122,6.63c-2.186,0-3.927-0.559-5.224-1.674
		c-1.104-0.958-1.88-2.311-2.343-4.068l-11.532,5.402c0.971,3.256,2.915,5.875,5.832,7.854c3.176,2.167,7.144,3.247,11.908,3.247
		c6.013,0,11.139-1.545,15.375-4.646c1.354-0.994,2.523-2.099,3.548-3.294C35.446,42.99,35.192,39.693,35.938,36.063z"/>
	<path fill="#F48120" d="M75.792,25.19c-0.195-0.254-0.377-0.511-0.596-0.754c-3.018-3.46-7.454-4.941-13.313-4.438L74.979,5.576
		H61.847L45.735,23.381c-3.789,4.164-6.16,8.552-7.104,13.155c-1,4.874,0.01,8.976,3.035,12.302c3.042,3.348,7.336,5.02,12.887,5.02
		c5.686,0,10.75-1.686,15.197-5.055c2.854-2.152,4.992-4.658,6.441-7.501C74.351,36.262,74.229,30.619,75.792,25.19z M65.305,36.227
		c-0.411,2.006-1.383,3.689-2.914,5.057c-1.669,1.48-3.595,2.223-5.78,2.223c-2.136,0-3.735-0.742-4.796-2.223
		c-1.012-1.391-1.314-3.076-0.907-5.057c0.423-2.05,1.424-3.769,3.004-5.16c1.643-1.456,3.545-2.186,5.706-2.186
		c2.23,0,3.862,0.75,4.892,2.254C65.458,32.506,65.721,34.199,65.305,36.227z"/>
	<g>
		<path fill-rule="evenodd" clip-rule="evenodd" fill="#F48120" d="M139.999,37.724c-1.479-3.896-4.414-6.026-4.414-6.026
			c-2.205,2.829-2.986,7.051-2.986,7.051s1.137-0.108,2.521-0.254c0.188,1.861,0.115,3.97-0.789,4.83
			c-0.539,0.52-1.494,0.57-2.83,0.151c-0.5-0.151-0.961-0.948-1.445-1.791c-0.984-1.698-2.459-4.255-6.215-4.116
			c-0.158,0.007-0.313,0.02-0.463,0.029c3.387-7.143,3.434-15.189-0.141-21.56c1.723-3.52,1.359-7.481-2.293-10.971
			c-0.082-0.085-0.461-0.217-0.541,0.057c-0.119,1.708-0.371,3.796-1.354,5.717c-4.229-3.766-9.787-5.5-15.52-5.229
			c0.52-1.643,1.391-3.066,2.172-4.231c0.107-0.265-0.266-0.395-0.387-0.379c-4.344,0.428-6.969,2.65-8.125,5.716
			c-3.887,1.186-7.66,3.3-10.947,6.33c-10.461,9.64-12.086,24.921-3.623,34.131c8.457,9.205,23.797,8.857,34.26-0.786
			c1.994-1.841,3.666-3.883,5.008-6.052c0.58-0.148,1.262-0.252,2.055-0.283c2.129-0.091,2.896,1.036,3.959,2.875
			c0.705,1.218,1.434,2.479,2.861,2.922c0.709,0.219,1.367,0.348,1.982,0.381c1.338,0.078,2.447-0.296,3.303-1.111
			c1.713-1.633,1.789-4.659,1.551-6.92C138.954,38.026,140.046,37.846,139.999,37.724z"/>
	</g>
	<g>
		<path fill-rule="evenodd" clip-rule="evenodd" fill="#FFFFFF" d="M113.042,29.716c0,6.343-5.139,11.485-11.48,11.485
			s-11.482-5.143-11.482-11.485c0-6.34,5.141-11.479,11.482-11.479S113.042,23.376,113.042,29.716z"/>
		<g>
			<circle fill-rule="evenodd" clip-rule="evenodd" fill="#333B41" cx="101.56" cy="29.718" r="2.758"/>
			<path fill-rule="evenodd" clip-rule="evenodd" fill="#FCFBEC" d="M100.044,28.525c-0.146,0.481,0.125,1.004,0.605,1.15
				c0.484,0.15,1-0.123,1.152-0.605c0.146-0.486-0.123-1.003-0.611-1.15C100.712,27.769,100.194,28.045,100.044,28.525z"/>
		</g>
	</g>
</g>
</svg>
